<mxfile host="Electron" modified="2024-05-23T16:57:09.930Z" agent="Mozilla/5.0 (X11; Linux x86_64) AppleWebKit/537.36 (KHTML, like Gecko) draw.io/24.4.0 Chrome/120.0.6099.109 Electron/28.1.0 Safari/537.36" etag="sZ94sS_C3zZnF2AoT-DQ" version="24.4.0" type="device">
  <diagram name="Page-1" id="0vbAru05EYEyx-hmrW0Z">
    <mxGraphModel dx="1320" dy="975" grid="0" gridSize="10" guides="1" tooltips="1" connect="1" arrows="1" fold="1" page="1" pageScale="1" pageWidth="3300" pageHeight="4681" math="1" shadow="0">
      <root>
        <mxCell id="0" />
        <mxCell id="1" parent="0" />
        <mxCell id="hViJJE3Ngq66DKYJHtaa-24" value="" style="group" parent="1" vertex="1" connectable="0">
          <mxGeometry x="1103" y="1250" width="743" height="272.32000000000016" as="geometry" />
        </mxCell>
        <mxCell id="hViJJE3Ngq66DKYJHtaa-15" value="" style="rounded=0;whiteSpace=wrap;html=1;" parent="hViJJE3Ngq66DKYJHtaa-24" vertex="1">
          <mxGeometry x="34.5" y="80.88000000000011" width="386" height="162" as="geometry" />
        </mxCell>
        <mxCell id="hViJJE3Ngq66DKYJHtaa-11" value="" style="rounded=0;whiteSpace=wrap;html=1;" parent="hViJJE3Ngq66DKYJHtaa-24" vertex="1">
          <mxGeometry x="34.5" y="162.57" width="386" height="0.13" as="geometry" />
        </mxCell>
        <mxCell id="hViJJE3Ngq66DKYJHtaa-12" value="" style="ellipse;whiteSpace=wrap;html=1;aspect=fixed;fillColor=#030303;" parent="hViJJE3Ngq66DKYJHtaa-24" vertex="1">
          <mxGeometry x="216.5" y="150.8800000000001" width="22" height="22" as="geometry" />
        </mxCell>
        <mxCell id="hViJJE3Ngq66DKYJHtaa-20" value="&lt;span style=&quot;font-size: 36px;&quot;&gt;$$D_1$$&lt;/span&gt;" style="text;html=1;align=center;verticalAlign=middle;whiteSpace=wrap;rounded=0;" parent="hViJJE3Ngq66DKYJHtaa-24" vertex="1">
          <mxGeometry x="205" y="42" width="60" height="30" as="geometry" />
        </mxCell>
        <mxCell id="hklO_Ae9GN0cakbTq0-c-2" value="&lt;font style=&quot;font-size: 36px;&quot;&gt;$$D_2$$&lt;/font&gt;" style="text;html=1;align=center;verticalAlign=middle;whiteSpace=wrap;rounded=0;" vertex="1" parent="hViJJE3Ngq66DKYJHtaa-24">
          <mxGeometry x="302" y="147.6300000000001" width="330" height="30" as="geometry" />
        </mxCell>
        <mxCell id="hViJJE3Ngq66DKYJHtaa-25" value="" style="group" parent="1" vertex="1" connectable="0">
          <mxGeometry x="305" y="1112" width="762" height="506.25" as="geometry" />
        </mxCell>
        <mxCell id="VPYLfWboq6FFPKXyFIXK-2" value="&lt;span style=&quot;font-size: 36px;&quot;&gt;$$D_1$$&lt;/span&gt;" style="text;html=1;align=center;verticalAlign=middle;whiteSpace=wrap;rounded=0;" parent="hViJJE3Ngq66DKYJHtaa-25" vertex="1">
          <mxGeometry x="203.25" y="34" width="60" height="30" as="geometry" />
        </mxCell>
        <mxCell id="hViJJE3Ngq66DKYJHtaa-1" value="" style="whiteSpace=wrap;html=1;aspect=fixed;" parent="hViJJE3Ngq66DKYJHtaa-25" vertex="1">
          <mxGeometry x="40.25" y="80" width="386" height="386" as="geometry" />
        </mxCell>
        <mxCell id="hViJJE3Ngq66DKYJHtaa-3" value="" style="rounded=0;whiteSpace=wrap;html=1;" parent="hViJJE3Ngq66DKYJHtaa-25" vertex="1">
          <mxGeometry x="40.25" y="269.56" width="386" height="0.87" as="geometry" />
        </mxCell>
        <mxCell id="hViJJE3Ngq66DKYJHtaa-4" value="" style="ellipse;whiteSpace=wrap;html=1;aspect=fixed;fillColor=#030303;" parent="hViJJE3Ngq66DKYJHtaa-25" vertex="1">
          <mxGeometry x="222.25" y="259" width="22" height="22" as="geometry" />
        </mxCell>
        <mxCell id="hViJJE3Ngq66DKYJHtaa-22" value="&lt;font style=&quot;font-size: 36px;&quot;&gt;$$D_2$$&lt;/font&gt;" style="text;html=1;align=center;verticalAlign=middle;whiteSpace=wrap;rounded=0;" parent="hViJJE3Ngq66DKYJHtaa-25" vertex="1">
          <mxGeometry x="304" y="255.0000000000001" width="330" height="30" as="geometry" />
        </mxCell>
      </root>
    </mxGraphModel>
  </diagram>
</mxfile>
